<svg xmlns="http://www.w3.org/2000/svg" viewBox="0 0 512 512">
  <defs>
    <radialGradient id="bg" cx="50%" cy="50%" r="50%">
      <stop offset="0%" stop-color="#1A2038"/>
      <stop offset="100%" stop-color="#070B1A"/>
    </radialGradient>
    <linearGradient id="chrome" x1="0" y1="0" x2="1" y2="1">
      <stop offset="0%" stop-color="#B0C4DE"/>
      <stop offset="20%" stop-color="#E8EEF6"/>
      <stop offset="40%" stop-color="#FFFFFF"/>
      <stop offset="60%" stop-color="#C0D0E8"/>
      <stop offset="80%" stop-color="#8898B8"/>
      <stop offset="100%" stop-color="#D0DAE8"/>
    </linearGradient>
    <linearGradient id="cd" x1="1" y1="0" x2="0" y2="1">
      <stop offset="0%" stop-color="#405068"/>
      <stop offset="50%" stop-color="#8898B8"/>
      <stop offset="100%" stop-color="#303848"/>
    </linearGradient>
    <linearGradient id="bl" x1="0" y1="0" x2="0.5" y2="1">
      <stop offset="0%" stop-color="#55C8FF" stop-opacity="0.9"/>
      <stop offset="100%" stop-color="#2080C0" stop-opacity="0.3"/>
    </linearGradient>
    <linearGradient id="pk" x1="1" y1="0" x2="0.5" y2="1">
      <stop offset="0%" stop-color="#EC6BFF" stop-opacity="0.9"/>
      <stop offset="100%" stop-color="#A030C0" stop-opacity="0.3"/>
    </linearGradient>
  </defs>
  <rect width="512" height="512" fill="url(#bg)"/>
  <g>
    <path d="M256 60L120 420L180 450L220 340" fill="url(#chrome)"/>
    <path d="M256 60L392 420L332 450L292 340" fill="url(#cd)"/>
    <path d="M180 340C200 310 230 295 256 295C282 295 312 310 332 340C340 355 335 365 328 370C310 380 282 385 256 385C230 385 202 380 184 370C177 365 172 355 180 340Z" fill="url(#chrome)"/>
    <path d="M256 120L340 340C345 352 340 358 332 362C318 368 290 372 256 372C222 372 194 368 180 362C172 358 167 352 172 340L256 120Z" fill="url(#bg)"/>
    <path d="M256 65L130 420L160 420L256 130Z" fill="url(#bl)" opacity="0.5"/>
    <path d="M256 65L382 420L352 420L256 130Z" fill="url(#pk)" opacity="0.5"/>
    <path d="M256 65L240 110" stroke="#FFF" stroke-width="6" stroke-linecap="round" opacity="0.6"/>
    <path d="M256 65L125 418" stroke="#FFF" stroke-width="1.5" stroke-linecap="round" opacity="0.3"/>
    <path d="M256 65L387 418" stroke="#A0B0C8" stroke-width="1.5" stroke-linecap="round" opacity="0.3"/>
  </g>
</svg>
