<svg width="1200" height="630" xmlns="http://www.w3.org/2000/svg">
  <defs>
    <radialGradient id="bg" cx="40%" cy="45%" r="55%">
      <stop offset="0%" stop-color="#141B2D"/>
      <stop offset="100%" stop-color="#070B1A"/>
    </radialGradient>
    <linearGradient id="chrome" x1="0.1" y1="0" x2="0.9" y2="1">
      <stop offset="0%" stop-color="#A8B8D0"/>
      <stop offset="25%" stop-color="#F0F4FA"/>
      <stop offset="38%" stop-color="#FFFFFF"/>
      <stop offset="50%" stop-color="#C8D8EC"/>
      <stop offset="75%" stop-color="#B0C0D8"/>
      <stop offset="100%" stop-color="#98A8C0"/>
    </linearGradient>
    <linearGradient id="cd" x1="0.9" y1="0" x2="0.1" y2="1">
      <stop offset="0%" stop-color="#506078"/>
      <stop offset="50%" stop-color="#405068"/>
      <stop offset="100%" stop-color="#283040"/>
    </linearGradient>
    <linearGradient id="bl" x1="0" y1="0.2" x2="0.4" y2="0.8">
      <stop offset="0%" stop-color="#7DD4FF" stop-opacity="0.95"/>
      <stop offset="60%" stop-color="#3AA8E8" stop-opacity="0.5"/>
      <stop offset="100%" stop-color="#2080C0" stop-opacity="0.15"/>
    </linearGradient>
    <linearGradient id="pk" x1="1" y1="0.2" x2="0.6" y2="0.8">
      <stop offset="0%" stop-color="#F080FF" stop-opacity="0.95"/>
      <stop offset="60%" stop-color="#D050E0" stop-opacity="0.5"/>
      <stop offset="100%" stop-color="#A030C0" stop-opacity="0.15"/>
    </linearGradient>
    <linearGradient id="pr" x1="0.3" y1="0" x2="0.7" y2="1">
      <stop offset="0%" stop-color="#A070FF" stop-opacity="0.7"/>
      <stop offset="100%" stop-color="#6D3FD6" stop-opacity="0.1"/>
    </linearGradient>
    <linearGradient id="hl" x1="0.3" y1="0" x2="0.7" y2="1">
      <stop offset="0%" stop-color="#FFFFFF" stop-opacity="0.9"/>
      <stop offset="100%" stop-color="#FFFFFF" stop-opacity="0.05"/>
    </linearGradient>
    <linearGradient id="lc" x1="0" y1="0" x2="1" y2="1">
      <stop offset="0%" stop-color="#E0E8F4"/>
      <stop offset="50%" stop-color="#FFFFFF"/>
      <stop offset="100%" stop-color="#B8C8E0"/>
    </linearGradient>
    <filter id="glow"><feGaussianBlur stdDeviation="12" result="b"/><feMerge><feMergeNode in="b"/><feMergeNode in="SourceGraphic"/></feMerge></filter>
    <filter id="sh"><feDropShadow dx="0" dy="6" stdDeviation="10" flood-color="#000" flood-opacity="0.5"/></filter>
    <pattern id="grid" width="80" height="80" patternUnits="userSpaceOnUse" opacity="0.025">
      <path d="M80 0L0 0 0 80" fill="none" stroke="#55C8FF" stroke-width="0.5"/>
    </pattern>
  </defs>
  <rect width="1200" height="630" fill="url(#bg)"/>
  <rect width="1200" height="630" fill="url(#grid)"/>
  <ellipse cx="350" cy="310" rx="200" ry="120" fill="#55C8FF" opacity="0.05" filter="url(#glow)"/>
  <ellipse cx="350" cy="310" rx="160" ry="100" fill="#EC6BFF" opacity="0.03" filter="url(#glow)"/>
  <!-- Large Chrome A -->
  <g transform="translate(80, 50) scale(2.2)" filter="url(#sh)">
    <path d="M256 55C250 55 240 58 232 65L105 400C95 428 100 448 115 455C125 460 140 458 155 450L195 335C210 305 235 290 256 290" fill="url(#chrome)"/>
    <path d="M256 55C262 55 272 58 280 65L407 400C417 428 412 448 397 455C387 460 372 458 357 450L317 335C302 305 277 290 256 290" fill="url(#cd)"/>
    <path d="M195 335C215 305 238 290 256 290C274 290 297 305 317 335C330 355 325 370 315 378C300 390 278 395 256 395C234 395 212 390 197 378C187 370 182 355 195 335Z" fill="url(#chrome)"/>
    <path d="M256 110C262 110 270 115 278 125L355 330C362 348 358 360 348 368C335 378 310 385 256 385C202 385 177 378 164 368C154 360 150 348 157 330L234 125C242 115 250 110 256 110Z" fill="#070B1A"/>
    <path d="M232 65L105 400C95 428 100 448 115 455C125 460 140 458 155 450L195 335C210 305 235 290 256 290L256 55C248 55 238 58 232 65Z" fill="url(#bl)" opacity="0.7"/>
    <path d="M280 65L407 400C417 428 412 448 397 455C387 460 372 458 357 450L317 335C302 305 277 290 256 290L256 55C264 55 274 58 280 65Z" fill="url(#pk)" opacity="0.7"/>
    <path d="M200 340C218 312 240 298 256 298C272 298 294 312 312 340C322 355 318 365 310 372C298 382 278 388 256 388C234 388 214 382 202 372C194 365 190 355 200 340Z" fill="url(#pr)" opacity="0.35"/>
    <path d="M256 60C252 60 246 63 242 70L236 95" stroke="url(#hl)" strokeWidth="5" strokeLinecap="round"/>
    <path d="M232 68L115 445" stroke="#FFF" strokeWidth="2" strokeLinecap="round" opacity="0.4"/>
    <path d="M280 68L397 445" stroke="#98A8C0" strokeWidth="2" strokeLinecap="round" opacity="0.3"/>
    <path d="M220 345C215 325 228 310 256 310C284 310 297 325 292 345C288 360 274 370 256 370C238 370 224 360 220 345Z" fill="none" stroke="url(#lc)" strokeWidth="4" strokeLinecap="round"/>
    <path d="M225 342C222 328 232 316 256 316C280 316 290 328 287 342" stroke="#FFF" strokeWidth="1.5" strokeLinecap="round" fill="none" opacity="0.35"/>
    <circle cx="120" cy="448" r="3" fill="#55C8FF" opacity="0.5"/>
    <circle cx="392" cy="448" r="2.5" fill="#EC6BFF" opacity="0.4"/>
  </g>
  <!-- Brand text -->
  <text x="820" y="190" font-family="Inter, Arial, sans-serif" font-size="80" font-weight="800" fill="#DCE4F2" letter-spacing="6">AVORA</text>
  <text x="820" y="250" font-family="Inter, Arial, sans-serif" font-size="18" fill="#55C8FF" letter-spacing="8" font-weight="300">FUTURISTIK · PREMIUM · CERDAS</text>
  <!-- Chrome accent bar -->
  <line x1="820" y1="290" x2="1120" y2="290" stroke="#DCE4F2" stroke-width="0.5" opacity="0.3"/>
  <!-- Tagline -->
  <rect x="820" y="330" width="280" height="52" rx="26" fill="url(#bl)" opacity="0.85"/>
  <text x="960" y="363" font-family="Inter, Arial, sans-serif" font-size="16" font-weight="600" fill="#FFFFFF" text-anchor="middle" letter-spacing="2">PRODUKTIVITAS TANPA BATAS</text>
  <!-- Bottom -->
  <line x1="820" y1="430" x2="1120" y2="430" stroke="#DCE4F2" stroke-width="0.3" opacity="0.2"/>
  <text x="970" y="470" font-family="Inter, Arial, sans-serif" font-size="11" fill="#607090" text-anchor="middle" letter-spacing="4">#AVORA</text>
</svg>
